<!-- OusaroTeacher App Icon SVG - Japanese Character Design (Dark Theme) -->
<svg width="1024" height="1024" viewBox="0 0 1024 1024" xmlns="http://www.w3.org/2000/svg">
  <defs>
    <!-- Background gradient (dark theme) -->
    <radialGradient id="backgroundGradient" cx="50%" cy="50%" r="70%">
      <stop offset="0%" style="stop-color:#1E293B;stop-opacity:1" />
      <stop offset="70%" style="stop-color:#334155;stop-opacity:1" />
      <stop offset="100%" style="stop-color:#0F172A;stop-opacity:1" />
    </radialGradient>
    
    <!-- Text gradient (light text on dark background) -->
    <linearGradient id="textGradient" x1="0%" y1="0%" x2="100%" y2="100%">
      <stop offset="0%" style="stop-color:#F8FAFC;stop-opacity:1" />
      <stop offset="100%" style="stop-color:#E2E8F0;stop-opacity:1" />
    </linearGradient>
    
    <!-- Accent gradient -->
    <linearGradient id="accentGradient" x1="0%" y1="0%" x2="100%" y2="100%">
      <stop offset="0%" style="stop-color:#3B82F6;stop-opacity:1" />
      <stop offset="100%" style="stop-color:#1D4ED8;stop-opacity:1" />
    </linearGradient>
    
    <!-- Shadow filter -->
    <filter id="shadow" x="-50%" y="-50%" width="200%" height="200%">
      <feDropShadow dx="4" dy="6" stdDeviation="8" flood-color="rgba(0,0,0,0.4)"/>
    </filter>
    
    <!-- Glow effect -->
    <filter id="glow" x="-50%" y="-50%" width="200%" height="200%">
      <feGaussianBlur stdDeviation="4" result="coloredBlur"/>
      <feMerge> 
        <feMergeNode in="coloredBlur"/>
        <feMergeNode in="SourceGraphic"/>
      </feMerge>
    </filter>
  </defs>
  
  <!-- Background circle -->
  <circle cx="512" cy="512" r="480" fill="url(#backgroundGradient)" stroke="url(#accentGradient)" stroke-width="12"/>
  
  <!-- Inner circle for depth -->
  <circle cx="512" cy="512" r="400" fill="none" stroke="url(#accentGradient)" stroke-width="2" opacity="0.3"/>
  
  <!-- Japanese character "学" (gaku - learning) as path for better compatibility -->
  <g transform="translate(512, 512)" filter="url(#glow)">
    <!-- Drawing the character "学" as vector paths for better rendering -->
    <!-- Top horizontal stroke -->
    <rect x="-120" y="-180" width="240" height="20" rx="10" ry="10" fill="url(#textGradient)"/>
    
    <!-- Left diagonal stroke -->
    <rect x="-100" y="-160" width="20" height="120" rx="10" ry="10" fill="url(#textGradient)" transform="rotate(-15)"/>
    
    <!-- Right diagonal stroke -->
    <rect x="80" y="-160" width="20" height="120" rx="10" ry="10" fill="url(#textGradient)" transform="rotate(15)"/>
    
    <!-- Middle horizontal stroke -->
    <rect x="-80" y="-80" width="160" height="16" rx="8" ry="8" fill="url(#textGradient)"/>
    
    <!-- Center vertical stroke -->
    <rect x="-8" y="-80" width="16" height="200" rx="8" ry="8" fill="url(#textGradient)"/>
    
    <!-- Bottom left stroke -->
    <rect x="-60" y="40" width="80" height="16" rx="8" ry="8" fill="url(#textGradient)" transform="rotate(-10)"/>
    
    <!-- Bottom right stroke -->
    <rect x="-20" y="40" width="80" height="16" rx="8" ry="8" fill="url(#textGradient)" transform="rotate(10)"/>
    
    <!-- Bottom horizontal stroke -->
    <rect x="-100" y="100" width="200" height="20" rx="10" ry="10" fill="url(#textGradient)"/>
  </g>
  
  <!-- Decorative corner elements -->
  <g opacity="0.2">
    <circle cx="150" cy="150" r="8" fill="url(#accentGradient)"/>
    <circle cx="874" cy="150" r="6" fill="url(#accentGradient)"/>
    <circle cx="150" cy="874" r="6" fill="url(#accentGradient)"/>
    <circle cx="874" cy="874" r="8" fill="url(#accentGradient)"/>
  </g>
</svg>
